# xmcd
#
# Track frame offsets:
#	150
#	7401
#	20457
#	27374
#	36336
#	42599
#	56125
#	67224
#	69429
#	82242
#	99224
#	112408
#	122341
#	126520
#	135507
#
# Disc length: 1875 seconds
#
# Revision: 0
# Processed by: cddbd v1.5.2PL0 Copyright (c) Steve Scherf et al.
# Submitted via: Collectorz.com Music Collector 1.0
#
DISCID=e407510f
DTITLE=Johnny Cash - Live At Free Trade Hall, Manchester, UK, 1973-09-03, #2
DYEAR=2005
DGENRE=70s  - country
TTITLE0=I Walk The Line
TTITLE1=Jackson
TTITLE2=If I Were A Carpenter > 
TTITLE3=Help Me Make It Through The Night
TTITLE4=June introduces gospel songs...
TTITLE5=Follow Me
TTITLE6=Help Me
TTITLE7=more talk...
TTITLE8=The Last Supper
TTITLE9=Allegheny
TTITLE10=Will The Circle Be Unbroken? > 
TTITLE11=Daddy Sang Bass
TTITLE12=announcer and band interlude
TTITLE13=A Thing Called Love
TTITLE14=JC says goodbye...
EXTD=
EXTT0=
EXTT1=
EXTT2=
EXTT3=
EXTT4=
EXTT5=
EXTT6=
EXTT7=
EXTT8=
EXTT9=
EXTT10=
EXTT11=
EXTT12=
EXTT13=
EXTT14=
PLAYORDER=
